<?xml version="1.0" encoding="UTF-8"?>
<svg version="1.1" xmlns="http://www.w3.org/2000/svg" width="360" height="360">
<path d="M0 0 C118.8 0 237.6 0 360 0 C360 118.8 360 237.6 360 360 C241.2 360 122.4 360 0 360 C0 241.2 0 122.4 0 0 Z " fill="#FDFDFD" transform="translate(0,0)"/>
<path d="M0 0 C7.92 0 15.84 0 24 0 C24 7.92 24 15.84 24 24 C31.92 24 39.84 24 48 24 C48 31.92 48 39.84 48 48 C55.92 48 63.84 48 72 48 C72 53.61 72 59.22 72 65 C89.82 65.33 107.64 65.66 126 66 C126 83.82 126 101.64 126 120 C131.94 120 137.88 120 144 120 C144 127.92 144 135.84 144 144 C151.92 144 159.84 144 168 144 C168 151.92 168 159.84 168 168 C175.92 168 183.84 168 192 168 C192 207.6 192 247.2 192 288 C152.4 288 112.8 288 72 288 C72 280.08 72 272.16 72 264 C64.08 264 56.16 264 48 264 C48 256.08 48 248.16 48 240 C40.08 240 32.16 240 24 240 C24 232.08 24 224.16 24 216 C16.08 216 8.16 216 0 216 C0 208.08 0 200.16 0 192 C-7.92 192 -15.84 192 -24 192 C-24 184.08 -24 176.16 -24 168 C-31.92 168 -39.84 168 -48 168 C-48 160.08 -48 152.16 -48 144 C-55.92 144 -63.84 144 -72 144 C-72 136.08 -72 128.16 -72 120 C-64.08 120 -56.16 120 -48 120 C-48 112.08 -48 104.16 -48 96 C-44.7 96 -41.4 96 -38 96 C-38 96.99 -38 97.98 -38 99 C-37.59910156 98.29875 -37.19820313 97.5975 -36.78515625 96.875 C-30.71975714 86.75224775 -23.60730506 80.13699432 -13 75 C-11.865625 74.443125 -10.73125 73.88625 -9.5625 73.3125 C-5.1133476 71.67333859 -0.66384055 70.79763873 4 70 C2.68 70 1.36 70 0 70 C0 63.07 0 56.14 0 49 C7.92 49 15.84 49 24 49 C24 56.92 24 64.84 24 73 C26.083125 73.928125 28.16625 74.85625 30.3125 75.8125 C39.44605233 80.17135442 47.2434715 86.92076319 52 96 C52 96.66 52 97.32 52 98 C52.66 98 53.32 98 54 98 C54 97.34 54 96.68 54 96 C59.94 96 65.88 96 72 96 C72 88.08 72 80.16 72 72 C78.27 72 84.54 72 91 72 C90.67 72.66 90.34 73.32 90 74 C89.34 74 88.68 74 88 74 C88.33 74.99 88.66 75.98 89 77 C89.99 75.515 89.99 75.515 91 74 C94.22265625 73.671875 94.22265625 73.671875 98.0625 73.75 C99.33222656 73.76546875 100.60195313 73.7809375 101.91015625 73.796875 C105 74 105 74 106 75 C106.125 78 106.125 78 106 81 C104.05909174 82.94090826 100.52706098 82.39919435 97.9375 82.5625 C96.64714844 82.64628906 95.35679687 82.73007813 94.02734375 82.81640625 C93.02832031 82.87699219 92.02929688 82.93757813 91 83 C92.65 83.33 94.3 83.66 96 84 C96 87.96 96 91.92 96 96 C103.92 96 111.84 96 120 96 C120 103.92 120 111.84 120 120 C120.66 120 121.32 120 122 120 C122.33 103.5 122.66 87 123 70 C115.97525391 70.13921875 115.97525391 70.13921875 108.80859375 70.28125 C105.83259304 70.32215198 102.8569413 70.36066272 99.88085938 70.390625 C95.16194243 70.4383596 90.4442731 70.49467652 85.72631836 70.60351562 C81.92012496 70.6907666 78.11526975 70.73833929 74.30815315 70.75901794 C72.85956826 70.77374321 71.41105261 70.80250151 69.96304131 70.84584045 C58.63761324 71.17117238 58.63761324 71.17117238 54.60481262 68.28703308 C52.82125655 66.27469083 51.40603017 64.28662035 50 62 C49.1023418 60.84047628 48.19429932 59.68880125 47.26953125 58.55078125 C46.44770084 57.47349964 45.62863207 56.39410498 44.8125 55.3125 C41.91935956 51.50478308 39.00364107 47.72175296 36 44 C35.67 44.33 35.34 44.66 35 45 C35 45.66 35 46.32 35 47 C19 47 3 47 -13 47 C-17.79387132 50.19869811 -20.80170907 54.458789 -24.125 59.0625 C-25.16708236 60.4924828 -26.21127966 61.9209273 -27.2578125 63.34765625 C-27.7130127 63.97679932 -28.16821289 64.60594238 -28.63720703 65.25415039 C-29.08692871 65.83028076 -29.53665039 66.40641113 -30 67 C-30.58668709 67.78597565 -30.58668709 67.78597565 -31.18522644 68.58782959 C-33.88124874 70.68574583 -36.01649173 70.35990576 -39.39916992 70.34057617 C-40.04334366 70.34101425 -40.6875174 70.34145233 -41.35121155 70.34190369 C-43.47794021 70.33981559 -45.60387802 70.31648513 -47.73046875 70.29296875 C-49.20591298 70.28737283 -50.68136278 70.28310271 -52.15681458 70.28010559 C-56.03839534 70.26865637 -59.91963883 70.23918887 -63.80108643 70.20599365 C-68.45913473 70.16989583 -73.11729586 70.15613195 -77.77544403 70.13863373 C-84.85053053 70.10955116 -91.92487713 70.0520655 -99 70 C-98.67 86.5 -98.34 103 -98 120 C-97.34 120 -96.68 120 -96 120 C-96 127.92 -96 135.84 -96 144 C-103.92 144 -111.84 144 -120 144 C-120 136.08 -120 128.16 -120 120 C-127.92 120 -135.84 120 -144 120 C-144 112.08 -144 104.16 -144 96 C-136.08 96 -128.16 96 -120 96 C-120 88.08 -120 80.16 -120 72 C-127.92 72 -135.84 72 -144 72 C-144 64.08 -144 56.16 -144 48 C-136.08 48 -128.16 48 -120 48 C-120 40.08 -120 32.16 -120 24 C-112.08 24 -104.16 24 -96 24 C-96 31.92 -96 39.84 -96 48 C-88.08 48 -80.16 48 -72 48 C-72 40.08 -72 32.16 -72 24 C-64.08 24 -56.16 24 -48 24 C-48 31.92 -48 39.84 -48 48 C-40.08 48 -32.16 48 -24 48 C-24 40.08 -24 32.16 -24 24 C-16.08 24 -8.16 24 0 24 C0 16.08 0 8.16 0 0 Z " fill="#EDEDED" transform="translate(168,72)"/>
<path d="M0 0 C7.92 0 15.84 0 24 0 C24 7.92 24 15.84 24 24 C31.92 24 39.84 24 48 24 C48 31.92 48 39.84 48 48 C55.92 48 63.84 48 72 48 C72 53.61 72 59.22 72 65 C89.82 65.33 107.64 65.66 126 66 C126 77.27295035 125.97525768 88.44187559 125.5 99.6875 C125.45230469 100.88955078 125.40460938 102.09160156 125.35546875 103.33007812 C125.24032425 106.22020516 125.12185531 109.11014956 125 112 C124.67 112 124.34 112 124 112 C123.16416352 102.11921881 122.93292421 92.31322431 122.96875 82.3984375 C122.97100586 81.20178467 122.97326172 80.00513184 122.97558594 78.7722168 C122.98142535 75.84813111 122.98961438 72.92407247 123 70 C122.18869125 70.01776489 121.37738251 70.03552979 120.54148865 70.05383301 C112.87669787 70.21446661 105.21272861 70.33609407 97.54669094 70.41449738 C93.60583345 70.45616259 89.66637222 70.51262201 85.72631836 70.60351562 C81.92012496 70.6907666 78.11526975 70.73833929 74.30815315 70.75901794 C72.85956826 70.77374321 71.41105261 70.80250151 69.96304131 70.84584045 C58.63761324 71.17117238 58.63761324 71.17117238 54.60481262 68.28703308 C52.82125655 66.27469083 51.40603017 64.28662035 50 62 C49.1023418 60.84047628 48.19429932 59.68880125 47.26953125 58.55078125 C46.44770084 57.47349964 45.62863207 56.39410498 44.8125 55.3125 C41.91935956 51.50478308 39.00364107 47.72175296 36 44 C35.67 44.33 35.34 44.66 35 45 C35 45.66 35 46.32 35 47 C19 47 3 47 -13 47 C-17.79387132 50.19869811 -20.80170907 54.458789 -24.125 59.0625 C-25.16708236 60.4924828 -26.21127966 61.9209273 -27.2578125 63.34765625 C-27.7130127 63.97679932 -28.16821289 64.60594238 -28.63720703 65.25415039 C-29.08692871 65.83028076 -29.53665039 66.40641113 -30 67 C-30.58668709 67.78597565 -30.58668709 67.78597565 -31.18522644 68.58782959 C-33.88124874 70.68574583 -36.01649173 70.35990576 -39.39916992 70.34057617 C-40.04334366 70.34101425 -40.6875174 70.34145233 -41.35121155 70.34190369 C-43.47794021 70.33981559 -45.60387802 70.31648513 -47.73046875 70.29296875 C-49.20591298 70.28737283 -50.68136278 70.28310271 -52.15681458 70.28010559 C-56.03839534 70.26865637 -59.91963883 70.23918887 -63.80108643 70.20599365 C-68.45913473 70.16989583 -73.11729586 70.15613195 -77.77544403 70.13863373 C-84.85053053 70.10955116 -91.92487713 70.0520655 -99 70 C-98.67 86.5 -98.34 103 -98 120 C-97.34 120 -96.68 120 -96 120 C-96 127.92 -96 135.84 -96 144 C-103.92 144 -111.84 144 -120 144 C-120 136.08 -120 128.16 -120 120 C-127.92 120 -135.84 120 -144 120 C-144 112.08 -144 104.16 -144 96 C-136.08 96 -128.16 96 -120 96 C-120 88.08 -120 80.16 -120 72 C-127.92 72 -135.84 72 -144 72 C-144 64.08 -144 56.16 -144 48 C-136.08 48 -128.16 48 -120 48 C-120 40.08 -120 32.16 -120 24 C-112.08 24 -104.16 24 -96 24 C-96 31.92 -96 39.84 -96 48 C-88.08 48 -80.16 48 -72 48 C-72 40.08 -72 32.16 -72 24 C-64.08 24 -56.16 24 -48 24 C-48 31.92 -48 39.84 -48 48 C-40.08 48 -32.16 48 -24 48 C-24 40.08 -24 32.16 -24 24 C-16.08 24 -8.16 24 0 24 C0 16.08 0 8.16 0 0 Z " fill="#F7F7F7" transform="translate(168,72)"/>
<path d="M0 0 C0.61488281 0.47824219 1.22976562 0.95648438 1.86328125 1.44921875 C9.53319659 8.20078503 14.46162327 19.0099283 15.23828125 29.09375 C15.53834467 42.8650816 12.32362161 53.66797251 3 64 C-7.80416199 74.28694147 -18.90791549 76.49897712 -33.28125 76.27734375 C-38.84805815 76.05742857 -43.1945859 74.83554766 -48 72 C-49.1446875 71.36384766 -49.1446875 71.36384766 -50.3125 70.71484375 C-60.58144502 64.48756121 -67.54936366 55.33126915 -70.609375 43.6796875 C-72.43083138 31.18449672 -71.66652648 19.27677989 -64.1875 8.75 C-63.1435966 7.48442822 -62.08124106 6.23382496 -61 5 C-60.52175781 4.40574219 -60.04351562 3.81148437 -59.55078125 3.19921875 C-44.09223972 -14.36199594 -17.46194928 -13.88174305 0 0 Z " fill="#040404" transform="translate(204,160)"/>
<path d="M0 0 C7.92 0 15.84 0 24 0 C24 7.92 24 15.84 24 24 C26.083125 24.928125 28.16625 25.85625 30.3125 26.8125 C44.20016829 33.56585895 51.2298068 44.16079332 57 58 C60.2447059 68.93984599 59.27566583 82.91876144 54.55078125 93.20703125 C46.62860892 107.47492349 36.80932589 116.51988827 21.0703125 121.45703125 C10.16963633 124.31588783 -1.76192525 124.11903738 -12 119 C-12.33 119.66 -12.66 120.32 -13 121 C-13.99 120.505 -13.99 120.505 -15 120 C-17.47832659 119.84373424 -19.93311331 119.74186802 -22.4140625 119.68359375 C-23.14370209 119.66281265 -23.87334167 119.64203156 -24.62509155 119.62062073 C-26.95829763 119.55518083 -29.29161721 119.49626632 -31.625 119.4375 C-33.20574095 119.39430947 -34.78647039 119.35069501 -36.3671875 119.30664062 C-40.24467697 119.19870631 -44.1222513 119.09959245 -48 119 C-48 111.08 -48 103.16 -48 95 C-55.92 95 -63.84 95 -72 95 C-72 87.08 -72 79.16 -72 71 C-64.08 71 -56.16 71 -48 71 C-48 63.08 -48 55.16 -48 47 C-44.7 47 -41.4 47 -38 47 C-38 47.99 -38 48.98 -38 50 C-37.59910156 49.29875 -37.19820312 48.5975 -36.78515625 47.875 C-30.71975714 37.75224775 -23.60730506 31.13699432 -13 26 C-11.865625 25.443125 -10.73125 24.88625 -9.5625 24.3125 C-5.1133476 22.67333859 -0.66384055 21.79763873 4 21 C2.68 21 1.36 21 0 21 C0 14.07 0 7.14 0 0 Z M-25.765625 44.203125 C-34.59669931 55.25740683 -35.88261207 66.38489153 -35 80 C-33.40372038 90.34876196 -27.35278331 100.6536682 -19 107 C-6.28093463 114.75894086 5.59530402 117.30730844 20.37890625 114.31640625 C32.05158262 110.31482018 41.06669151 102.92206163 46.8125 92 C51.8313097 81.10389999 53.07815333 68.8655158 49.0390625 57.37109375 C43.52861619 44.79650387 35.21384667 36.4105247 22.59375 30.9609375 C4.61459539 24.71493249 -13.04697025 30.83638594 -25.765625 44.203125 Z " fill="#EDEDED" transform="translate(168,121)"/>
<path d="M0 0 C7.92 0 15.84 0 24 0 C24 7.92 24 15.84 24 24 C31.92 24 39.84 24 48 24 C48 31.92 48 39.84 48 48 C55.92 48 63.84 48 72 48 C72 53.61 72 59.22 72 65 C89.82 65.33 107.64 65.66 126 66 C126 77.27295035 125.97525768 88.44187559 125.5 99.6875 C125.45230469 100.88955078 125.40460938 102.09160156 125.35546875 103.33007812 C125.24032425 106.22020516 125.12185531 109.11014956 125 112 C124.67 112 124.34 112 124 112 C123.16416352 102.11921881 122.93292421 92.31322431 122.96875 82.3984375 C122.97100586 81.20178467 122.97326172 80.00513184 122.97558594 78.7722168 C122.98142535 75.84813111 122.98961438 72.92407247 123 70 C122.18869125 70.01776489 121.37738251 70.03552979 120.54148865 70.05383301 C112.87669787 70.21446661 105.21272861 70.33609407 97.54669094 70.41449738 C93.60583345 70.45616259 89.66637222 70.51262201 85.72631836 70.60351562 C81.92012496 70.6907666 78.11526975 70.73833929 74.30815315 70.75901794 C72.85956826 70.77374321 71.41105261 70.80250151 69.96304131 70.84584045 C58.63761324 71.17117238 58.63761324 71.17117238 54.60481262 68.28703308 C52.82125655 66.27469083 51.40603017 64.28662035 50 62 C49.1023418 60.84047628 48.19429932 59.68880125 47.26953125 58.55078125 C46.44770084 57.47349964 45.62863207 56.39410498 44.8125 55.3125 C41.91935956 51.50478308 39.00364107 47.72175296 36 44 C35.67 44.33 35.34 44.66 35 45 C35 45.66 35 46.32 35 47 C19 47 3 47 -13 47 C-17.79387132 50.19869811 -20.80170907 54.458789 -24.125 59.0625 C-25.16708236 60.4924828 -26.21127966 61.9209273 -27.2578125 63.34765625 C-27.7130127 63.97679932 -28.16821289 64.60594238 -28.63720703 65.25415039 C-29.08692871 65.83028076 -29.53665039 66.40641113 -30 67 C-30.58668709 67.78597565 -30.58668709 67.78597565 -31.18522644 68.58782959 C-33.88124874 70.68574583 -36.01649173 70.35990576 -39.39916992 70.34057617 C-40.04334366 70.34101425 -40.6875174 70.34145233 -41.35121155 70.34190369 C-43.47794021 70.33981559 -45.60387802 70.31648513 -47.73046875 70.29296875 C-49.20591298 70.28737283 -50.68136278 70.28310271 -52.15681458 70.28010559 C-56.03839534 70.26865637 -59.91963883 70.23918887 -63.80108643 70.20599365 C-67.76252683 70.17529424 -71.72402178 70.16160055 -75.68554688 70.14648438 C-83.45718494 70.11431894 -91.22854519 70.06312205 -99 70 C-98.99555878 70.64479813 -98.99111755 71.28959625 -98.98654175 71.95393372 C-98.94236116 78.6532673 -98.91215553 85.35255962 -98.89013672 92.05200195 C-98.88006712 94.55364665 -98.86641066 97.05527955 -98.84912109 99.55688477 C-98.82491508 103.14862986 -98.81352654 106.7402196 -98.8046875 110.33203125 C-98.79436493 111.45398392 -98.78404236 112.57593658 -98.77340698 113.73188782 C-98.77325592 114.77274033 -98.77310486 115.81359283 -98.77294922 116.88598633 C-98.768508 117.80309891 -98.76406677 118.72021149 -98.75949097 119.66511536 C-99 122 -99 122 -101 125 C-101.33 105.53 -101.66 86.06 -102 66 C-93.42 66 -84.84 66 -76 66 C-76 64.68 -76 63.36 -76 62 C-70.06 62 -64.12 62 -58 62 C-58 63.32 -58 64.64 -58 66 C-53.05 65.505 -53.05 65.505 -48 65 C-48 59.39 -48 53.78 -48 48 C-40.08 48 -32.16 48 -24 48 C-24 40.08 -24 32.16 -24 24 C-16.08 24 -8.16 24 0 24 C0 16.08 0 8.16 0 0 Z " fill="#EDEDED" transform="translate(168,72)"/>
<path d="M0 0 C10.87296401 9.29859818 18.3954917 20.94511918 19.60546875 35.46484375 C19.88348052 50.66282052 15.13109014 63.86696168 4.65234375 74.9609375 C-6.36034005 85.07501689 -19.26122696 88.87742917 -33.9375 88.27734375 C-47.59714587 87.34434766 -58.31408593 81.07134303 -67.59765625 71.02734375 C-77.00962195 59.01897371 -80.30438456 46.02531038 -78.59765625 31.02734375 C-75.85241861 17.59418654 -68.20541738 6.2260145 -57.11328125 -1.76171875 C-39.25753182 -13.01860426 -17.09118265 -12.97901841 0 0 Z M-63.36328125 11.23046875 C-72.19435556 22.28475058 -73.48026832 33.41223528 -72.59765625 47.02734375 C-71.00137663 57.37610571 -64.95043956 67.68101195 -56.59765625 74.02734375 C-43.87859088 81.78628461 -32.00235223 84.33465219 -17.21875 81.34375 C-5.54607363 77.34216393 3.46903526 69.94940538 9.21484375 59.02734375 C14.23365345 48.13124374 15.48049708 35.89285955 11.44140625 24.3984375 C5.93095994 11.82384762 -2.38380958 3.43786845 -15.00390625 -2.01171875 C-32.98306086 -8.25772376 -50.6446265 -2.13627031 -63.36328125 11.23046875 Z " fill="#F2F2F2" transform="translate(205.59765625,153.97265625)"/>
<path d="M0 0 C3.42031358 0.06216979 6.81647326 -0.0197165 10.2355957 -0.11547852 C26.95361329 -0.22839565 26.95361329 -0.22839565 32.15209961 4.52856445 C34.04537708 6.71075122 35.55180886 8.97473996 36.98583984 11.47705078 C37.81181981 12.90589532 38.64723407 14.32929441 39.48754883 15.74975586 C40.13254333 16.84846512 40.77753784 17.94717438 41.44207764 19.07917786 C44.59509999 24.02330853 47.257073 27.99871352 52.96443176 29.92048645 C57.07535189 30.34886959 60.99866785 30.37382803 65.12036133 30.23803711 C66.60822936 30.23622443 68.09611438 30.24016335 69.58395386 30.2495575 C73.46900609 30.25886053 77.34886838 30.1909426 81.23284912 30.10595703 C85.90904919 30.02008257 90.5859354 30.03178779 95.26278687 30.02681732 C102.34098998 30.00852653 109.40715824 29.86769792 116.48754883 29.74975586 C116.48754883 44.59975586 116.48754883 59.44975586 116.48754883 74.74975586 C116.15754883 74.74975586 115.82754883 74.74975586 115.48754883 74.74975586 C114.65171235 64.86897467 114.42047304 55.06298017 114.45629883 45.14819336 C114.45855469 43.95154053 114.46081055 42.7548877 114.46313477 41.52197266 C114.46897418 38.59788697 114.4771632 35.67382833 114.48754883 32.74975586 C113.67624008 32.76752075 112.86493134 32.78528564 112.02903748 32.80358887 C104.3642467 32.96422247 96.70027744 33.08584993 89.03423977 33.16425323 C85.09338228 33.20591845 81.15392105 33.26237787 77.21386719 33.35327148 C73.40767379 33.44052246 69.60281858 33.48809515 65.79570198 33.5087738 C64.34711709 33.52349906 62.89860144 33.55225737 61.45059013 33.59559631 C50.12516207 33.92092824 50.12516207 33.92092824 46.09236145 31.03678894 C44.30880537 29.02444669 42.893579 27.03637621 41.48754883 24.74975586 C40.58989063 23.59023214 39.68184815 22.43855711 38.75708008 21.30053711 C37.93524967 20.2232555 37.1161809 19.14386084 36.30004883 18.06225586 C33.40690838 14.25453894 30.4911899 10.47150882 27.48754883 6.74975586 C27.15754883 7.07975586 26.82754883 7.40975586 26.48754883 7.74975586 C26.48754883 8.40975586 26.48754883 9.06975586 26.48754883 9.74975586 C10.48754883 9.74975586 -5.51245117 9.74975586 -21.51245117 9.74975586 C-26.30632249 12.94845397 -29.31416024 17.20854486 -32.63745117 21.81225586 C-33.67953354 23.24223866 -34.72373083 24.67068316 -35.77026367 26.09741211 C-36.22546387 26.72655518 -36.68066406 27.35569824 -37.1496582 28.00390625 C-37.59937988 28.58003662 -38.04910156 29.15616699 -38.51245117 29.74975586 C-38.9035759 30.27373962 -39.29470062 30.79772339 -39.69767761 31.33758545 C-42.39369991 33.43550169 -44.5289429 33.10966162 -47.91162109 33.09033203 C-48.55579483 33.09077011 -49.19996857 33.09120819 -49.86366272 33.09165955 C-51.99039138 33.08957145 -54.11632919 33.06624099 -56.24291992 33.04272461 C-57.71836415 33.03712869 -59.19381395 33.03285857 -60.66926575 33.02986145 C-64.55084651 33.01841223 -68.43209 32.98894473 -72.3135376 32.95574951 C-76.274978 32.9250501 -80.23647295 32.91135641 -84.19799805 32.89624023 C-91.96963611 32.8640748 -99.74099637 32.81287791 -107.51245117 32.74975586 C-107.50800995 33.39455399 -107.50356873 34.03935211 -107.49899292 34.70368958 C-107.45481233 41.40302316 -107.4246067 48.10231548 -107.40258789 54.80175781 C-107.3925183 57.30340251 -107.37886184 59.80503541 -107.36157227 62.30664062 C-107.33736625 65.89838572 -107.32597771 69.48997546 -107.31713867 73.08178711 C-107.3068161 74.20373978 -107.29649353 75.32569244 -107.28585815 76.48164368 C-107.28570709 77.52249619 -107.28555603 78.56334869 -107.28540039 79.63574219 C-107.28095917 80.55285477 -107.27651794 81.46996735 -107.27194214 82.41487122 C-107.51245117 84.74975586 -107.51245117 84.74975586 -109.51245117 87.74975586 C-109.84245117 68.27975586 -110.17245117 48.80975586 -110.51245117 28.74975586 C-101.93245117 28.74975586 -93.35245117 28.74975586 -84.51245117 28.74975586 C-84.51245117 27.42975586 -84.51245117 26.10975586 -84.51245117 24.74975586 C-78.57245117 24.74975586 -72.63245117 24.74975586 -66.51245117 24.74975586 C-66.51245117 26.39975586 -66.51245117 28.04975586 -66.51245117 29.74975586 C-53.06299131 31.03478962 -53.06299131 31.03478962 -40.45727539 27.5378418 C-37.75638306 25.03764245 -35.89398858 22.20950987 -34.05151367 19.04663086 C-33.47397339 18.0891394 -33.47397339 18.0891394 -32.88476562 17.11230469 C-31.80776989 15.2581706 -30.82508638 13.34921797 -29.88037109 11.42431641 C-23.10692103 -0.76088969 -12.89234226 -0.28999663 0 0 Z " fill="#202020" transform="translate(176.512451171875,109.250244140625)"/>
<path d="M0 0 C7.92 0 15.84 0 24 0 C24 7.92 24 15.84 24 24 C26.083125 24.928125 28.16625 25.85625 30.3125 26.8125 C44.20016829 33.56585895 51.2298068 44.16079332 57 58 C60.2447059 68.93984599 59.27566583 82.91876144 54.55078125 93.20703125 C46.62860892 107.47492349 36.80932589 116.51988827 21.0703125 121.45703125 C6.92522845 125.16677971 -6.20914762 122.61823492 -19.00390625 115.9296875 C-31.3089231 108.00442241 -38.22693221 96.87157277 -42 83 C-44.78322236 68.57118933 -41.63761496 55.50421315 -34 43 C-24.57890576 29.99281182 -11.55755607 23.51568992 4 21 C2.68 21 1.36 21 0 21 C0 14.07 0 7.14 0 0 Z M-30.78515625 41.9375 C-40.05876773 53.32198469 -42.16836116 66.80343289 -41 81 C-38.61693092 93.48957893 -31.11331805 105.45568088 -20.58203125 112.65234375 C-7.99704558 120.43942263 4.85953231 123.03669343 19.546875 120.3515625 C32.87882557 116.61989213 43.88178397 108.94040311 50.8203125 96.8203125 C57.53727963 83.02943796 58.91345493 70.14744845 54.32421875 55.4296875 C49.1630951 42.06252949 39.90789518 32.87557106 27 27 C24.03580539 25.8271502 21.07345922 24.84221582 18 24 C17.195625 23.773125 16.39125 23.54625 15.5625 23.3125 C-3.14370627 21.03125533 -18.28203633 28.36737422 -30.78515625 41.9375 Z " fill="#EDEDED" transform="translate(168,121)"/>
<path d="M0 0 C6.27 0 12.54 0 19 0 C18.67 0.66 18.34 1.32 18 2 C17.34 2 16.68 2 16 2 C16.33 2.99 16.66 3.98 17 5 C17.66 4.01 18.32 3.02 19 2 C22.22265625 1.671875 22.22265625 1.671875 26.0625 1.75 C27.33222656 1.76546875 28.60195313 1.7809375 29.91015625 1.796875 C33 2 33 2 34 3 C34.125 6 34.125 6 34 9 C32.05909174 10.94090826 28.52706098 10.39919435 25.9375 10.5625 C24.00197266 10.68818359 24.00197266 10.68818359 22.02734375 10.81640625 C21.02832031 10.87699219 20.02929688 10.93757812 19 11 C21.475 11.495 21.475 11.495 24 12 C24 15.96 24 19.92 24 24 C16.08 24 8.16 24 0 24 C0 16.08 0 8.16 0 0 Z " fill="#EDEDED" transform="translate(240,144)"/>
<path d="M0 0 C0.33 0 0.66 0 1 0 C1.66 7.92 2.32 15.84 3 24 C8.94 24 14.88 24 21 24 C21 31.92 21 39.84 21 48 C13.08 48 5.16 48 -3 48 C-3 40.08 -3 32.16 -3 24 C-2.34 24 -1.68 24 -1 24 C-0.67 16.08 -0.34 8.16 0 0 Z " fill="#E4E4E4" transform="translate(291,168)"/>
<path d="M0 0 C7.92 0 15.84 0 24 0 C24 7.92 24 15.84 24 24 C16.08 24 8.16 24 0 24 C0 16.08 0 8.16 0 0 Z " fill="#EDEDED" transform="translate(336,336)"/>
<path d="M0 0 C7.92 0 15.84 0 24 0 C24 7.92 24 15.84 24 24 C16.08 24 8.16 24 0 24 C0 16.08 0 8.16 0 0 Z " fill="#FFFFFF" transform="translate(312,336)"/>
<path d="M0 0 C7.92 0 15.84 0 24 0 C24 7.92 24 15.84 24 24 C16.08 24 8.16 24 0 24 C0 16.08 0 8.16 0 0 Z " fill="#EDEDED" transform="translate(288,336)"/>
<path d="M0 0 C7.92 0 15.84 0 24 0 C24 7.92 24 15.84 24 24 C16.08 24 8.16 24 0 24 C0 16.08 0 8.16 0 0 Z " fill="#FFFFFF" transform="translate(264,336)"/>
<path d="M0 0 C7.92 0 15.84 0 24 0 C24 7.92 24 15.84 24 24 C16.08 24 8.16 24 0 24 C0 16.08 0 8.16 0 0 Z " fill="#EDEDED" transform="translate(240,336)"/>
<path d="M0 0 C7.92 0 15.84 0 24 0 C24 7.92 24 15.84 24 24 C16.08 24 8.16 24 0 24 C0 16.08 0 8.16 0 0 Z " fill="#FFFFFF" transform="translate(216,336)"/>
<path d="M0 0 C7.92 0 15.84 0 24 0 C24 7.92 24 15.84 24 24 C16.08 24 8.16 24 0 24 C0 16.08 0 8.16 0 0 Z " fill="#EDEDED" transform="translate(192,336)"/>
<path d="M0 0 C7.92 0 15.84 0 24 0 C24 7.92 24 15.84 24 24 C16.08 24 8.16 24 0 24 C0 16.08 0 8.16 0 0 Z " fill="#FFFFFF" transform="translate(168,336)"/>
<path d="M0 0 C7.92 0 15.84 0 24 0 C24 7.92 24 15.84 24 24 C16.08 24 8.16 24 0 24 C0 16.08 0 8.16 0 0 Z " fill="#EDEDED" transform="translate(144,336)"/>
<path d="M0 0 C7.92 0 15.84 0 24 0 C24 7.92 24 15.84 24 24 C16.08 24 8.16 24 0 24 C0 16.08 0 8.16 0 0 Z " fill="#FFFFFF" transform="translate(120,336)"/>
<path d="M0 0 C7.92 0 15.84 0 24 0 C24 7.92 24 15.84 24 24 C16.08 24 8.16 24 0 24 C0 16.08 0 8.16 0 0 Z " fill="#EDEDED" transform="translate(96,336)"/>
<path d="M0 0 C7.92 0 15.84 0 24 0 C24 7.92 24 15.84 24 24 C16.08 24 8.16 24 0 24 C0 16.08 0 8.16 0 0 Z " fill="#FFFFFF" transform="translate(72,336)"/>
<path d="M0 0 C7.92 0 15.84 0 24 0 C24 7.92 24 15.84 24 24 C16.08 24 8.16 24 0 24 C0 16.08 0 8.16 0 0 Z " fill="#EDEDED" transform="translate(48,336)"/>
<path d="M0 0 C7.92 0 15.84 0 24 0 C24 7.92 24 15.84 24 24 C16.08 24 8.16 24 0 24 C0 16.08 0 8.16 0 0 Z " fill="#FFFFFF" transform="translate(24,336)"/>
<path d="M0 0 C7.92 0 15.84 0 24 0 C24 7.92 24 15.84 24 24 C16.08 24 8.16 24 0 24 C0 16.08 0 8.16 0 0 Z " fill="#EDEDED" transform="translate(0,336)"/>
<path d="M0 0 C7.92 0 15.84 0 24 0 C24 7.92 24 15.84 24 24 C16.08 24 8.16 24 0 24 C0 16.08 0 8.16 0 0 Z " fill="#FFFFFF" transform="translate(336,312)"/>
<path d="M0 0 C7.92 0 15.84 0 24 0 C24 7.92 24 15.84 24 24 C16.08 24 8.16 24 0 24 C0 16.08 0 8.16 0 0 Z " fill="#EDEDED" transform="translate(312,312)"/>
<path d="M0 0 C7.92 0 15.84 0 24 0 C24 7.92 24 15.84 24 24 C16.08 24 8.16 24 0 24 C0 16.08 0 8.16 0 0 Z " fill="#FFFFFF" transform="translate(288,312)"/>
<path d="M0 0 C7.92 0 15.84 0 24 0 C24 7.92 24 15.84 24 24 C16.08 24 8.16 24 0 24 C0 16.08 0 8.16 0 0 Z " fill="#EDEDED" transform="translate(264,312)"/>
<path d="M0 0 C7.92 0 15.84 0 24 0 C24 7.92 24 15.84 24 24 C16.08 24 8.16 24 0 24 C0 16.08 0 8.16 0 0 Z " fill="#FFFFFF" transform="translate(240,312)"/>
<path d="M0 0 C7.92 0 15.84 0 24 0 C24 7.92 24 15.84 24 24 C16.08 24 8.16 24 0 24 C0 16.08 0 8.16 0 0 Z " fill="#EDEDED" transform="translate(216,312)"/>
<path d="M0 0 C7.92 0 15.84 0 24 0 C24 7.92 24 15.84 24 24 C16.08 24 8.16 24 0 24 C0 16.08 0 8.16 0 0 Z " fill="#FFFFFF" transform="translate(192,312)"/>
<path d="M0 0 C7.92 0 15.84 0 24 0 C24 7.92 24 15.84 24 24 C16.08 24 8.16 24 0 24 C0 16.08 0 8.16 0 0 Z " fill="#EDEDED" transform="translate(168,312)"/>
<path d="M0 0 C7.92 0 15.84 0 24 0 C24 7.92 24 15.84 24 24 C16.08 24 8.16 24 0 24 C0 16.08 0 8.16 0 0 Z " fill="#FFFFFF" transform="translate(144,312)"/>
<path d="M0 0 C7.92 0 15.84 0 24 0 C24 7.92 24 15.84 24 24 C16.08 24 8.16 24 0 24 C0 16.08 0 8.16 0 0 Z " fill="#EDEDED" transform="translate(120,312)"/>
<path d="M0 0 C7.92 0 15.84 0 24 0 C24 7.92 24 15.84 24 24 C16.08 24 8.16 24 0 24 C0 16.08 0 8.16 0 0 Z " fill="#FFFFFF" transform="translate(96,312)"/>
<path d="M0 0 C7.92 0 15.84 0 24 0 C24 7.92 24 15.84 24 24 C16.08 24 8.16 24 0 24 C0 16.08 0 8.16 0 0 Z " fill="#EDEDED" transform="translate(72,312)"/>
<path d="M0 0 C7.92 0 15.84 0 24 0 C24 7.92 24 15.84 24 24 C16.08 24 8.16 24 0 24 C0 16.08 0 8.16 0 0 Z " fill="#FFFFFF" transform="translate(48,312)"/>
<path d="M0 0 C7.92 0 15.84 0 24 0 C24 7.92 24 15.84 24 24 C16.08 24 8.16 24 0 24 C0 16.08 0 8.16 0 0 Z " fill="#EDEDED" transform="translate(24,312)"/>
<path d="M0 0 C7.92 0 15.84 0 24 0 C24 7.92 24 15.84 24 24 C16.08 24 8.16 24 0 24 C0 16.08 0 8.16 0 0 Z " fill="#FFFFFF" transform="translate(0,312)"/>
<path d="M0 0 C7.92 0 15.84 0 24 0 C24 7.92 24 15.84 24 24 C16.08 24 8.16 24 0 24 C0 16.08 0 8.16 0 0 Z " fill="#EDEDED" transform="translate(336,288)"/>
<path d="M0 0 C7.92 0 15.84 0 24 0 C24 7.92 24 15.84 24 24 C16.08 24 8.16 24 0 24 C0 16.08 0 8.16 0 0 Z " fill="#FFFFFF" transform="translate(312,288)"/>
<path d="M0 0 C7.92 0 15.84 0 24 0 C24 7.92 24 15.84 24 24 C16.08 24 8.16 24 0 24 C0 16.08 0 8.16 0 0 Z " fill="#EDEDED" transform="translate(288,288)"/>
<path d="M0 0 C7.92 0 15.84 0 24 0 C24 7.92 24 15.84 24 24 C16.08 24 8.16 24 0 24 C0 16.08 0 8.16 0 0 Z " fill="#FFFFFF" transform="translate(264,288)"/>
<path d="M0 0 C7.92 0 15.84 0 24 0 C24 7.92 24 15.84 24 24 C16.08 24 8.16 24 0 24 C0 16.08 0 8.16 0 0 Z " fill="#EDEDED" transform="translate(240,288)"/>
<path d="M0 0 C7.92 0 15.84 0 24 0 C24 7.92 24 15.84 24 24 C16.08 24 8.16 24 0 24 C0 16.08 0 8.16 0 0 Z " fill="#FFFFFF" transform="translate(216,288)"/>
<path d="M0 0 C7.92 0 15.84 0 24 0 C24 7.92 24 15.84 24 24 C16.08 24 8.16 24 0 24 C0 16.08 0 8.16 0 0 Z " fill="#EDEDED" transform="translate(192,288)"/>
<path d="M0 0 C7.92 0 15.84 0 24 0 C24 7.92 24 15.84 24 24 C16.08 24 8.16 24 0 24 C0 16.08 0 8.16 0 0 Z " fill="#FFFFFF" transform="translate(168,288)"/>
<path d="M0 0 C7.92 0 15.84 0 24 0 C24 7.92 24 15.84 24 24 C16.08 24 8.16 24 0 24 C0 16.08 0 8.16 0 0 Z " fill="#EDEDED" transform="translate(144,288)"/>
<path d="M0 0 C7.92 0 15.84 0 24 0 C24 7.92 24 15.84 24 24 C16.08 24 8.16 24 0 24 C0 16.08 0 8.16 0 0 Z " fill="#FFFFFF" transform="translate(120,288)"/>
<path d="M0 0 C7.92 0 15.84 0 24 0 C24 7.92 24 15.84 24 24 C16.08 24 8.16 24 0 24 C0 16.08 0 8.16 0 0 Z " fill="#EDEDED" transform="translate(96,288)"/>
<path d="M0 0 C7.92 0 15.84 0 24 0 C24 7.92 24 15.84 24 24 C16.08 24 8.16 24 0 24 C0 16.08 0 8.16 0 0 Z " fill="#FFFFFF" transform="translate(72,288)"/>
<path d="M0 0 C7.92 0 15.84 0 24 0 C24 7.92 24 15.84 24 24 C16.08 24 8.16 24 0 24 C0 16.08 0 8.16 0 0 Z " fill="#EDEDED" transform="translate(48,288)"/>
<path d="M0 0 C7.92 0 15.84 0 24 0 C24 7.92 24 15.84 24 24 C16.08 24 8.16 24 0 24 C0 16.08 0 8.16 0 0 Z " fill="#FFFFFF" transform="translate(24,288)"/>
<path d="M0 0 C7.92 0 15.84 0 24 0 C24 7.92 24 15.84 24 24 C16.08 24 8.16 24 0 24 C0 16.08 0 8.16 0 0 Z " fill="#EDEDED" transform="translate(0,288)"/>
<path d="M0 0 C7.92 0 15.84 0 24 0 C24 7.92 24 15.84 24 24 C16.08 24 8.16 24 0 24 C0 16.08 0 8.16 0 0 Z " fill="#FFFFFF" transform="translate(336,264)"/>
<path d="M0 0 C7.92 0 15.84 0 24 0 C24 7.92 24 15.84 24 24 C16.08 24 8.16 24 0 24 C0 16.08 0 8.16 0 0 Z " fill="#EDEDED" transform="translate(312,264)"/>
<path d="M0 0 C7.92 0 15.84 0 24 0 C24 7.92 24 15.84 24 24 C16.08 24 8.16 24 0 24 C0 16.08 0 8.16 0 0 Z " fill="#FFFFFF" transform="translate(288,264)"/>
<path d="M0 0 C7.92 0 15.84 0 24 0 C24 7.92 24 15.84 24 24 C16.08 24 8.16 24 0 24 C0 16.08 0 8.16 0 0 Z " fill="#EDEDED" transform="translate(264,264)"/>
<path d="M0 0 C7.92 0 15.84 0 24 0 C24 7.92 24 15.84 24 24 C16.08 24 8.16 24 0 24 C0 16.08 0 8.16 0 0 Z " fill="#FFFFFF" transform="translate(240,264)"/>
<path d="M0 0 C7.92 0 15.84 0 24 0 C24 7.92 24 15.84 24 24 C16.08 24 8.16 24 0 24 C0 16.08 0 8.16 0 0 Z " fill="#EDEDED" transform="translate(216,264)"/>
<path d="M0 0 C7.92 0 15.84 0 24 0 C24 7.92 24 15.84 24 24 C16.08 24 8.16 24 0 24 C0 16.08 0 8.16 0 0 Z " fill="#FFFFFF" transform="translate(192,264)"/>
<path d="M0 0 C7.92 0 15.84 0 24 0 C24 7.92 24 15.84 24 24 C16.08 24 8.16 24 0 24 C0 16.08 0 8.16 0 0 Z " fill="#EDEDED" transform="translate(168,264)"/>
<path d="M0 0 C7.92 0 15.84 0 24 0 C24 7.92 24 15.84 24 24 C16.08 24 8.16 24 0 24 C0 16.08 0 8.16 0 0 Z " fill="#FFFFFF" transform="translate(144,264)"/>
<path d="M0 0 C7.92 0 15.84 0 24 0 C24 7.92 24 15.84 24 24 C16.08 24 8.16 24 0 24 C0 16.08 0 8.16 0 0 Z " fill="#EDEDED" transform="translate(120,264)"/>
<path d="M0 0 C7.92 0 15.84 0 24 0 C24 7.92 24 15.84 24 24 C16.08 24 8.16 24 0 24 C0 16.08 0 8.16 0 0 Z " fill="#FFFFFF" transform="translate(96,264)"/>
<path d="M0 0 C7.92 0 15.84 0 24 0 C24 7.92 24 15.84 24 24 C16.08 24 8.16 24 0 24 C0 16.08 0 8.16 0 0 Z " fill="#EDEDED" transform="translate(72,264)"/>
<path d="M0 0 C7.92 0 15.84 0 24 0 C24 7.92 24 15.84 24 24 C16.08 24 8.16 24 0 24 C0 16.08 0 8.16 0 0 Z " fill="#FFFFFF" transform="translate(48,264)"/>
<path d="M0 0 C7.92 0 15.84 0 24 0 C24 7.92 24 15.84 24 24 C16.08 24 8.16 24 0 24 C0 16.08 0 8.16 0 0 Z " fill="#EDEDED" transform="translate(24,264)"/>
<path d="M0 0 C7.92 0 15.84 0 24 0 C24 7.92 24 15.84 24 24 C16.08 24 8.16 24 0 24 C0 16.08 0 8.16 0 0 Z " fill="#FFFFFF" transform="translate(0,264)"/>
<path d="M0 0 C7.92 0 15.84 0 24 0 C24 7.92 24 15.84 24 24 C16.08 24 8.16 24 0 24 C0 16.08 0 8.16 0 0 Z " fill="#EDEDED" transform="translate(336,240)"/>
<path d="M0 0 C7.92 0 15.84 0 24 0 C24 7.92 24 15.84 24 24 C16.08 24 8.16 24 0 24 C0 16.08 0 8.16 0 0 Z " fill="#FFFFFF" transform="translate(312,240)"/>
<path d="M0 0 C7.92 0 15.84 0 24 0 C24 7.92 24 15.84 24 24 C16.08 24 8.16 24 0 24 C0 16.08 0 8.16 0 0 Z " fill="#EDEDED" transform="translate(288,240)"/>
<path d="M0 0 C7.92 0 15.84 0 24 0 C24 7.92 24 15.84 24 24 C16.08 24 8.16 24 0 24 C0 16.08 0 8.16 0 0 Z " fill="#FFFFFF" transform="translate(264,240)"/>
<path d="M0 0 C7.92 0 15.84 0 24 0 C24 7.92 24 15.84 24 24 C16.08 24 8.16 24 0 24 C0 16.08 0 8.16 0 0 Z " fill="#EDEDED" transform="translate(240,240)"/>
<path d="M0 0 C7.92 0 15.84 0 24 0 C24 7.92 24 15.84 24 24 C16.08 24 8.16 24 0 24 C0 16.08 0 8.16 0 0 Z " fill="#FFFFFF" transform="translate(216,240)"/>
<path d="M0 0 C7.92 0 15.84 0 24 0 C24 7.92 24 15.84 24 24 C16.08 24 8.16 24 0 24 C0 16.08 0 8.16 0 0 Z " fill="#FFFFFF" transform="translate(120,240)"/>
<path d="M0 0 C7.92 0 15.84 0 24 0 C24 7.92 24 15.84 24 24 C16.08 24 8.16 24 0 24 C0 16.08 0 8.16 0 0 Z " fill="#EDEDED" transform="translate(96,240)"/>
<path d="M0 0 C7.92 0 15.84 0 24 0 C24 7.92 24 15.84 24 24 C16.08 24 8.16 24 0 24 C0 16.08 0 8.16 0 0 Z " fill="#FFFFFF" transform="translate(72,240)"/>
<path d="M0 0 C7.92 0 15.84 0 24 0 C24 7.92 24 15.84 24 24 C16.08 24 8.16 24 0 24 C0 16.08 0 8.16 0 0 Z " fill="#EDEDED" transform="translate(48,240)"/>
<path d="M0 0 C7.92 0 15.84 0 24 0 C24 7.92 24 15.84 24 24 C16.08 24 8.16 24 0 24 C0 16.08 0 8.16 0 0 Z " fill="#FFFFFF" transform="translate(24,240)"/>
<path d="M0 0 C7.92 0 15.84 0 24 0 C24 7.92 24 15.84 24 24 C16.08 24 8.16 24 0 24 C0 16.08 0 8.16 0 0 Z " fill="#EDEDED" transform="translate(0,240)"/>
<path d="M0 0 C7.92 0 15.84 0 24 0 C24 7.92 24 15.84 24 24 C16.08 24 8.16 24 0 24 C0 16.08 0 8.16 0 0 Z " fill="#FFFFFF" transform="translate(336,216)"/>
<path d="M0 0 C7.92 0 15.84 0 24 0 C24 7.92 24 15.84 24 24 C16.08 24 8.16 24 0 24 C0 16.08 0 8.16 0 0 Z " fill="#EDEDED" transform="translate(312,216)"/>
<path d="M0 0 C7.92 0 15.84 0 24 0 C24 7.92 24 15.84 24 24 C16.08 24 8.16 24 0 24 C0 16.08 0 8.16 0 0 Z " fill="#FFFFFF" transform="translate(288,216)"/>
<path d="M0 0 C7.92 0 15.84 0 24 0 C24 7.92 24 15.84 24 24 C16.08 24 8.16 24 0 24 C0 16.08 0 8.16 0 0 Z " fill="#EDEDED" transform="translate(264,216)"/>
<path d="M0 0 C7.92 0 15.84 0 24 0 C24 7.92 24 15.84 24 24 C16.08 24 8.16 24 0 24 C0 16.08 0 8.16 0 0 Z " fill="#FFFFFF" transform="translate(240,216)"/>
<path d="M0 0 C7.92 0 15.84 0 24 0 C24 7.92 24 15.84 24 24 C16.08 24 8.16 24 0 24 C0 16.08 0 8.16 0 0 Z " fill="#FFFFFF" transform="translate(96,216)"/>
<path d="M0 0 C7.92 0 15.84 0 24 0 C24 7.92 24 15.84 24 24 C16.08 24 8.16 24 0 24 C0 16.08 0 8.16 0 0 Z " fill="#EDEDED" transform="translate(72,216)"/>
<path d="M0 0 C7.92 0 15.84 0 24 0 C24 7.92 24 15.84 24 24 C16.08 24 8.16 24 0 24 C0 16.08 0 8.16 0 0 Z " fill="#FFFFFF" transform="translate(48,216)"/>
<path d="M0 0 C7.92 0 15.84 0 24 0 C24 7.92 24 15.84 24 24 C16.08 24 8.16 24 0 24 C0 16.08 0 8.16 0 0 Z " fill="#EDEDED" transform="translate(24,216)"/>
<path d="M0 0 C7.92 0 15.84 0 24 0 C24 7.92 24 15.84 24 24 C16.08 24 8.16 24 0 24 C0 16.08 0 8.16 0 0 Z " fill="#FFFFFF" transform="translate(0,216)"/>
<path d="M0 0 C7.92 0 15.84 0 24 0 C24 7.92 24 15.84 24 24 C16.08 24 8.16 24 0 24 C0 16.08 0 8.16 0 0 Z " fill="#EDEDED" transform="translate(336,192)"/>
<path d="M0 0 C7.92 0 15.84 0 24 0 C24 7.92 24 15.84 24 24 C16.08 24 8.16 24 0 24 C0 16.08 0 8.16 0 0 Z " fill="#FFFFFF" transform="translate(312,192)"/>
<path d="M0 0 C7.92 0 15.84 0 24 0 C24 7.92 24 15.84 24 24 C16.08 24 8.16 24 0 24 C0 16.08 0 8.16 0 0 Z " fill="#FFFFFF" transform="translate(264,192)"/>
<path d="M0 0 C7.92 0 15.84 0 24 0 C24 7.92 24 15.84 24 24 C16.08 24 8.16 24 0 24 C0 16.08 0 8.16 0 0 Z " fill="#EDEDED" transform="translate(240,192)"/>
<path d="M0 0 C7.92 0 15.84 0 24 0 C24 7.92 24 15.84 24 24 C16.08 24 8.16 24 0 24 C0 16.08 0 8.16 0 0 Z " fill="#FFFFFF" transform="translate(72,192)"/>
<path d="M0 0 C7.92 0 15.84 0 24 0 C24 7.92 24 15.84 24 24 C16.08 24 8.16 24 0 24 C0 16.08 0 8.16 0 0 Z " fill="#FFFFFF" transform="translate(24,192)"/>
<path d="M0 0 C7.92 0 15.84 0 24 0 C24 7.92 24 15.84 24 24 C16.08 24 8.16 24 0 24 C0 16.08 0 8.16 0 0 Z " fill="#EDEDED" transform="translate(0,192)"/>
<path d="M0 0 C7.92 0 15.84 0 24 0 C24 7.92 24 15.84 24 24 C16.08 24 8.16 24 0 24 C0 16.08 0 8.16 0 0 Z " fill="#FFFFFF" transform="translate(336,168)"/>
<path d="M0 0 C7.92 0 15.84 0 24 0 C24 7.92 24 15.84 24 24 C16.08 24 8.16 24 0 24 C0 16.08 0 8.16 0 0 Z " fill="#EDEDED" transform="translate(312,168)"/>
<path d="M0 0 C7.92 0 15.84 0 24 0 C24 7.92 24 15.84 24 24 C16.08 24 8.16 24 0 24 C0 16.08 0 8.16 0 0 Z " fill="#EDEDED" transform="translate(264,168)"/>
<path d="M0 0 C7.92 0 15.84 0 24 0 C24 7.92 24 15.84 24 24 C16.08 24 8.16 24 0 24 C0 16.08 0 8.16 0 0 Z " fill="#FFFFFF" transform="translate(240,168)"/>
<path d="M0 0 C7.92 0 15.84 0 24 0 C24 7.92 24 15.84 24 24 C16.08 24 8.16 24 0 24 C0 16.08 0 8.16 0 0 Z " fill="#FFFFFF" transform="translate(96,168)"/>
<path d="M0 0 C7.92 0 15.84 0 24 0 C24 7.92 24 15.84 24 24 C16.08 24 8.16 24 0 24 C0 16.08 0 8.16 0 0 Z " fill="#EDEDED" transform="translate(72,168)"/>
<path d="M0 0 C7.92 0 15.84 0 24 0 C24 7.92 24 15.84 24 24 C16.08 24 8.16 24 0 24 C0 16.08 0 8.16 0 0 Z " fill="#FFFFFF" transform="translate(0,168)"/>
<path d="M0 0 C7.92 0 15.84 0 24 0 C24 7.92 24 15.84 24 24 C16.08 24 8.16 24 0 24 C0 16.08 0 8.16 0 0 Z " fill="#EDEDED" transform="translate(336,144)"/>
<path d="M0 0 C7.92 0 15.84 0 24 0 C24 7.92 24 15.84 24 24 C16.08 24 8.16 24 0 24 C0 16.08 0 8.16 0 0 Z " fill="#FFFFFF" transform="translate(312,144)"/>
<path d="M0 0 C7.92 0 15.84 0 24 0 C24 7.92 24 15.84 24 24 C16.08 24 8.16 24 0 24 C0 16.08 0 8.16 0 0 Z " fill="#EDEDED" transform="translate(96,144)"/>
<path d="M0 0 C7.92 0 15.84 0 24 0 C24 7.92 24 15.84 24 24 C16.08 24 8.16 24 0 24 C0 16.08 0 8.16 0 0 Z " fill="#FFFFFF" transform="translate(24,144)"/>
<path d="M0 0 C7.92 0 15.84 0 24 0 C24 7.92 24 15.84 24 24 C16.08 24 8.16 24 0 24 C0 16.08 0 8.16 0 0 Z " fill="#EDEDED" transform="translate(0,144)"/>
<path d="M0 0 C7.92 0 15.84 0 24 0 C24 7.92 24 15.84 24 24 C16.08 24 8.16 24 0 24 C0 16.08 0 8.16 0 0 Z " fill="#FFFFFF" transform="translate(336,120)"/>
<path d="M0 0 C7.92 0 15.84 0 24 0 C24 7.92 24 15.84 24 24 C16.08 24 8.16 24 0 24 C0 16.08 0 8.16 0 0 Z " fill="#EDEDED" transform="translate(312,120)"/>
<path d="M0 0 C7.92 0 15.84 0 24 0 C24 7.92 24 15.84 24 24 C16.08 24 8.16 24 0 24 C0 16.08 0 8.16 0 0 Z " fill="#EDEDED" transform="translate(24,120)"/>
<path d="M0 0 C7.92 0 15.84 0 24 0 C24 7.92 24 15.84 24 24 C16.08 24 8.16 24 0 24 C0 16.08 0 8.16 0 0 Z " fill="#FFFFFF" transform="translate(0,120)"/>
<path d="M0 0 C7.92 0 15.84 0 24 0 C24 7.92 24 15.84 24 24 C16.08 24 8.16 24 0 24 C0 16.08 0 8.16 0 0 Z " fill="#EDEDED" transform="translate(336,96)"/>
<path d="M0 0 C7.92 0 15.84 0 24 0 C24 7.92 24 15.84 24 24 C16.08 24 8.16 24 0 24 C0 16.08 0 8.16 0 0 Z " fill="#FFFFFF" transform="translate(312,96)"/>
<path d="M0 0 C7.92 0 15.84 0 24 0 C24 7.92 24 15.84 24 24 C16.08 24 8.16 24 0 24 C0 16.08 0 8.16 0 0 Z " fill="#EDEDED" transform="translate(288,96)"/>
<path d="M0 0 C7.92 0 15.84 0 24 0 C24 7.92 24 15.84 24 24 C16.08 24 8.16 24 0 24 C0 16.08 0 8.16 0 0 Z " fill="#FFFFFF" transform="translate(264,96)"/>
<path d="M0 0 C7.92 0 15.84 0 24 0 C24 7.92 24 15.84 24 24 C16.08 24 8.16 24 0 24 C0 16.08 0 8.16 0 0 Z " fill="#EDEDED" transform="translate(240,96)"/>
<path d="M0 0 C7.92 0 15.84 0 24 0 C24 7.92 24 15.84 24 24 C16.08 24 8.16 24 0 24 C0 16.08 0 8.16 0 0 Z " fill="#FFFFFF" transform="translate(216,96)"/>
<path d="M0 0 C7.92 0 15.84 0 24 0 C24 7.92 24 15.84 24 24 C16.08 24 8.16 24 0 24 C0 16.08 0 8.16 0 0 Z " fill="#FFFFFF" transform="translate(120,96)"/>
<path d="M0 0 C7.92 0 15.84 0 24 0 C24 7.92 24 15.84 24 24 C16.08 24 8.16 24 0 24 C0 16.08 0 8.16 0 0 Z " fill="#EDEDED" transform="translate(96,96)"/>
<path d="M0 0 C7.92 0 15.84 0 24 0 C24 7.92 24 15.84 24 24 C16.08 24 8.16 24 0 24 C0 16.08 0 8.16 0 0 Z " fill="#FFFFFF" transform="translate(72,96)"/>
<path d="M0 0 C7.92 0 15.84 0 24 0 C24 7.92 24 15.84 24 24 C16.08 24 8.16 24 0 24 C0 16.08 0 8.16 0 0 Z " fill="#EDEDED" transform="translate(48,96)"/>
<path d="M0 0 C7.92 0 15.84 0 24 0 C24 7.92 24 15.84 24 24 C16.08 24 8.16 24 0 24 C0 16.08 0 8.16 0 0 Z " fill="#FFFFFF" transform="translate(24,96)"/>
<path d="M0 0 C7.92 0 15.84 0 24 0 C24 7.92 24 15.84 24 24 C16.08 24 8.16 24 0 24 C0 16.08 0 8.16 0 0 Z " fill="#EDEDED" transform="translate(0,96)"/>
<path d="M0 0 C7.92 0 15.84 0 24 0 C24 7.92 24 15.84 24 24 C16.08 24 8.16 24 0 24 C0 16.08 0 8.16 0 0 Z " fill="#FFFFFF" transform="translate(336,72)"/>
<path d="M0 0 C7.92 0 15.84 0 24 0 C24 7.92 24 15.84 24 24 C16.08 24 8.16 24 0 24 C0 16.08 0 8.16 0 0 Z " fill="#EDEDED" transform="translate(312,72)"/>
<path d="M0 0 C7.92 0 15.84 0 24 0 C24 7.92 24 15.84 24 24 C16.08 24 8.16 24 0 24 C0 16.08 0 8.16 0 0 Z " fill="#FFFFFF" transform="translate(288,72)"/>
<path d="M0 0 C7.92 0 15.84 0 24 0 C24 7.92 24 15.84 24 24 C16.08 24 8.16 24 0 24 C0 16.08 0 8.16 0 0 Z " fill="#EDEDED" transform="translate(264,72)"/>
<path d="M0 0 C7.92 0 15.84 0 24 0 C24 7.92 24 15.84 24 24 C16.08 24 8.16 24 0 24 C0 16.08 0 8.16 0 0 Z " fill="#FFFFFF" transform="translate(240,72)"/>
<path d="M0 0 C7.92 0 15.84 0 24 0 C24 7.92 24 15.84 24 24 C16.08 24 8.16 24 0 24 C0 16.08 0 8.16 0 0 Z " fill="#EDEDED" transform="translate(216,72)"/>
<path d="M0 0 C7.92 0 15.84 0 24 0 C24 7.92 24 15.84 24 24 C16.08 24 8.16 24 0 24 C0 16.08 0 8.16 0 0 Z " fill="#FFFFFF" transform="translate(192,72)"/>
<path d="M0 0 C7.92 0 15.84 0 24 0 C24 7.92 24 15.84 24 24 C16.08 24 8.16 24 0 24 C0 16.08 0 8.16 0 0 Z " fill="#FFFFFF" transform="translate(144,72)"/>
<path d="M0 0 C7.92 0 15.84 0 24 0 C24 7.92 24 15.84 24 24 C16.08 24 8.16 24 0 24 C0 16.08 0 8.16 0 0 Z " fill="#EDEDED" transform="translate(120,72)"/>
<path d="M0 0 C7.92 0 15.84 0 24 0 C24 7.92 24 15.84 24 24 C16.08 24 8.16 24 0 24 C0 16.08 0 8.16 0 0 Z " fill="#FFFFFF" transform="translate(96,72)"/>
<path d="M0 0 C7.92 0 15.84 0 24 0 C24 7.92 24 15.84 24 24 C16.08 24 8.16 24 0 24 C0 16.08 0 8.16 0 0 Z " fill="#EDEDED" transform="translate(72,72)"/>
<path d="M0 0 C7.92 0 15.84 0 24 0 C24 7.92 24 15.84 24 24 C16.08 24 8.16 24 0 24 C0 16.08 0 8.16 0 0 Z " fill="#FFFFFF" transform="translate(48,72)"/>
<path d="M0 0 C7.92 0 15.84 0 24 0 C24 7.92 24 15.84 24 24 C16.08 24 8.16 24 0 24 C0 16.08 0 8.16 0 0 Z " fill="#EDEDED" transform="translate(24,72)"/>
<path d="M0 0 C7.92 0 15.84 0 24 0 C24 7.92 24 15.84 24 24 C16.08 24 8.16 24 0 24 C0 16.08 0 8.16 0 0 Z " fill="#FFFFFF" transform="translate(0,72)"/>
<path d="M0 0 C7.92 0 15.84 0 24 0 C24 7.92 24 15.84 24 24 C16.08 24 8.16 24 0 24 C0 16.08 0 8.16 0 0 Z " fill="#EDEDED" transform="translate(336,48)"/>
<path d="M0 0 C7.92 0 15.84 0 24 0 C24 7.92 24 15.84 24 24 C16.08 24 8.16 24 0 24 C0 16.08 0 8.16 0 0 Z " fill="#FFFFFF" transform="translate(312,48)"/>
<path d="M0 0 C7.92 0 15.84 0 24 0 C24 7.92 24 15.84 24 24 C16.08 24 8.16 24 0 24 C0 16.08 0 8.16 0 0 Z " fill="#EDEDED" transform="translate(288,48)"/>
<path d="M0 0 C7.92 0 15.84 0 24 0 C24 7.92 24 15.84 24 24 C16.08 24 8.16 24 0 24 C0 16.08 0 8.16 0 0 Z " fill="#FFFFFF" transform="translate(264,48)"/>
<path d="M0 0 C7.92 0 15.84 0 24 0 C24 7.92 24 15.84 24 24 C16.08 24 8.16 24 0 24 C0 16.08 0 8.16 0 0 Z " fill="#EDEDED" transform="translate(240,48)"/>
<path d="M0 0 C7.92 0 15.84 0 24 0 C24 7.92 24 15.84 24 24 C16.08 24 8.16 24 0 24 C0 16.08 0 8.16 0 0 Z " fill="#FFFFFF" transform="translate(216,48)"/>
<path d="M0 0 C7.92 0 15.84 0 24 0 C24 7.92 24 15.84 24 24 C16.08 24 8.16 24 0 24 C0 16.08 0 8.16 0 0 Z " fill="#EDEDED" transform="translate(192,48)"/>
<path d="M0 0 C7.92 0 15.84 0 24 0 C24 7.92 24 15.84 24 24 C16.08 24 8.16 24 0 24 C0 16.08 0 8.16 0 0 Z " fill="#FFFFFF" transform="translate(168,48)"/>
<path d="M0 0 C7.92 0 15.84 0 24 0 C24 7.92 24 15.84 24 24 C16.08 24 8.16 24 0 24 C0 16.08 0 8.16 0 0 Z " fill="#EDEDED" transform="translate(144,48)"/>
<path d="M0 0 C7.92 0 15.84 0 24 0 C24 7.92 24 15.84 24 24 C16.08 24 8.16 24 0 24 C0 16.08 0 8.16 0 0 Z " fill="#FFFFFF" transform="translate(120,48)"/>
<path d="M0 0 C7.92 0 15.84 0 24 0 C24 7.92 24 15.84 24 24 C16.08 24 8.16 24 0 24 C0 16.08 0 8.16 0 0 Z " fill="#EDEDED" transform="translate(96,48)"/>
<path d="M0 0 C7.92 0 15.84 0 24 0 C24 7.92 24 15.84 24 24 C16.08 24 8.16 24 0 24 C0 16.08 0 8.16 0 0 Z " fill="#FFFFFF" transform="translate(72,48)"/>
<path d="M0 0 C7.92 0 15.84 0 24 0 C24 7.92 24 15.84 24 24 C16.08 24 8.16 24 0 24 C0 16.08 0 8.16 0 0 Z " fill="#EDEDED" transform="translate(48,48)"/>
<path d="M0 0 C7.92 0 15.84 0 24 0 C24 7.92 24 15.84 24 24 C16.08 24 8.16 24 0 24 C0 16.08 0 8.16 0 0 Z " fill="#FFFFFF" transform="translate(24,48)"/>
<path d="M0 0 C7.92 0 15.84 0 24 0 C24 7.92 24 15.84 24 24 C16.08 24 8.16 24 0 24 C0 16.08 0 8.16 0 0 Z " fill="#EDEDED" transform="translate(0,48)"/>
<path d="M0 0 C7.92 0 15.84 0 24 0 C24 7.92 24 15.84 24 24 C16.08 24 8.16 24 0 24 C0 16.08 0 8.16 0 0 Z " fill="#FFFFFF" transform="translate(336,24)"/>
<path d="M0 0 C7.92 0 15.84 0 24 0 C24 7.92 24 15.84 24 24 C16.08 24 8.16 24 0 24 C0 16.08 0 8.16 0 0 Z " fill="#EDEDED" transform="translate(312,24)"/>
<path d="M0 0 C7.92 0 15.84 0 24 0 C24 7.92 24 15.84 24 24 C16.08 24 8.16 24 0 24 C0 16.08 0 8.16 0 0 Z " fill="#FFFFFF" transform="translate(288,24)"/>
<path d="M0 0 C7.92 0 15.84 0 24 0 C24 7.92 24 15.84 24 24 C16.08 24 8.16 24 0 24 C0 16.08 0 8.16 0 0 Z " fill="#EDEDED" transform="translate(264,24)"/>
<path d="M0 0 C7.92 0 15.84 0 24 0 C24 7.92 24 15.84 24 24 C16.08 24 8.16 24 0 24 C0 16.08 0 8.16 0 0 Z " fill="#FFFFFF" transform="translate(240,24)"/>
<path d="M0 0 C7.92 0 15.84 0 24 0 C24 7.92 24 15.84 24 24 C16.08 24 8.16 24 0 24 C0 16.08 0 8.16 0 0 Z " fill="#EDEDED" transform="translate(216,24)"/>
<path d="M0 0 C7.92 0 15.84 0 24 0 C24 7.92 24 15.84 24 24 C16.08 24 8.16 24 0 24 C0 16.08 0 8.16 0 0 Z " fill="#FFFFFF" transform="translate(192,24)"/>
<path d="M0 0 C7.92 0 15.84 0 24 0 C24 7.92 24 15.84 24 24 C16.08 24 8.16 24 0 24 C0 16.08 0 8.16 0 0 Z " fill="#EDEDED" transform="translate(168,24)"/>
<path d="M0 0 C7.92 0 15.84 0 24 0 C24 7.92 24 15.84 24 24 C16.08 24 8.16 24 0 24 C0 16.08 0 8.16 0 0 Z " fill="#FFFFFF" transform="translate(144,24)"/>
<path d="M0 0 C7.92 0 15.84 0 24 0 C24 7.92 24 15.84 24 24 C16.08 24 8.16 24 0 24 C0 16.08 0 8.16 0 0 Z " fill="#EDEDED" transform="translate(120,24)"/>
<path d="M0 0 C7.92 0 15.84 0 24 0 C24 7.92 24 15.84 24 24 C16.08 24 8.16 24 0 24 C0 16.08 0 8.16 0 0 Z " fill="#FFFFFF" transform="translate(96,24)"/>
<path d="M0 0 C7.92 0 15.84 0 24 0 C24 7.92 24 15.84 24 24 C16.08 24 8.16 24 0 24 C0 16.08 0 8.16 0 0 Z " fill="#EDEDED" transform="translate(72,24)"/>
<path d="M0 0 C7.92 0 15.84 0 24 0 C24 7.92 24 15.84 24 24 C16.08 24 8.16 24 0 24 C0 16.08 0 8.16 0 0 Z " fill="#FFFFFF" transform="translate(48,24)"/>
<path d="M0 0 C7.92 0 15.84 0 24 0 C24 7.92 24 15.84 24 24 C16.08 24 8.16 24 0 24 C0 16.08 0 8.16 0 0 Z " fill="#EDEDED" transform="translate(24,24)"/>
<path d="M0 0 C7.92 0 15.84 0 24 0 C24 7.92 24 15.84 24 24 C16.08 24 8.16 24 0 24 C0 16.08 0 8.16 0 0 Z " fill="#FFFFFF" transform="translate(0,24)"/>
<path d="M0 0 C7.92 0 15.84 0 24 0 C24 7.92 24 15.84 24 24 C16.08 24 8.16 24 0 24 C0 16.08 0 8.16 0 0 Z " fill="#EDEDED" transform="translate(336,0)"/>
<path d="M0 0 C7.92 0 15.84 0 24 0 C24 7.92 24 15.84 24 24 C16.08 24 8.16 24 0 24 C0 16.08 0 8.16 0 0 Z " fill="#FFFFFF" transform="translate(312,0)"/>
<path d="M0 0 C7.92 0 15.84 0 24 0 C24 7.92 24 15.84 24 24 C16.08 24 8.16 24 0 24 C0 16.08 0 8.16 0 0 Z " fill="#EDEDED" transform="translate(288,0)"/>
<path d="M0 0 C7.92 0 15.84 0 24 0 C24 7.92 24 15.84 24 24 C16.08 24 8.16 24 0 24 C0 16.08 0 8.16 0 0 Z " fill="#FFFFFF" transform="translate(264,0)"/>
<path d="M0 0 C7.92 0 15.84 0 24 0 C24 7.92 24 15.84 24 24 C16.08 24 8.16 24 0 24 C0 16.08 0 8.16 0 0 Z " fill="#EDEDED" transform="translate(240,0)"/>
<path d="M0 0 C7.92 0 15.84 0 24 0 C24 7.92 24 15.84 24 24 C16.08 24 8.16 24 0 24 C0 16.08 0 8.16 0 0 Z " fill="#FFFFFF" transform="translate(216,0)"/>
<path d="M0 0 C7.92 0 15.84 0 24 0 C24 7.92 24 15.84 24 24 C16.08 24 8.16 24 0 24 C0 16.08 0 8.16 0 0 Z " fill="#EDEDED" transform="translate(192,0)"/>
<path d="M0 0 C7.92 0 15.84 0 24 0 C24 7.92 24 15.84 24 24 C16.08 24 8.16 24 0 24 C0 16.08 0 8.16 0 0 Z " fill="#FFFFFF" transform="translate(168,0)"/>
<path d="M0 0 C7.92 0 15.84 0 24 0 C24 7.92 24 15.84 24 24 C16.08 24 8.16 24 0 24 C0 16.08 0 8.16 0 0 Z " fill="#EDEDED" transform="translate(144,0)"/>
<path d="M0 0 C7.92 0 15.84 0 24 0 C24 7.92 24 15.84 24 24 C16.08 24 8.16 24 0 24 C0 16.08 0 8.16 0 0 Z " fill="#FFFFFF" transform="translate(120,0)"/>
<path d="M0 0 C7.92 0 15.84 0 24 0 C24 7.92 24 15.84 24 24 C16.08 24 8.16 24 0 24 C0 16.08 0 8.16 0 0 Z " fill="#EDEDED" transform="translate(96,0)"/>
<path d="M0 0 C7.92 0 15.84 0 24 0 C24 7.92 24 15.84 24 24 C16.08 24 8.16 24 0 24 C0 16.08 0 8.16 0 0 Z " fill="#FFFFFF" transform="translate(72,0)"/>
<path d="M0 0 C7.92 0 15.84 0 24 0 C24 7.92 24 15.84 24 24 C16.08 24 8.16 24 0 24 C0 16.08 0 8.16 0 0 Z " fill="#EDEDED" transform="translate(48,0)"/>
<path d="M0 0 C7.92 0 15.84 0 24 0 C24 7.92 24 15.84 24 24 C16.08 24 8.16 24 0 24 C0 16.08 0 8.16 0 0 Z " fill="#EDEDED" transform="translate(0,0)"/>
<path d="M0 0 C7.92 0 15.84 0 24 0 C24 7.92 24 15.84 24 24 C18.06 24 12.12 24 6 24 C6 24.66 6 25.32 6 26 C5.34 26 4.68 26 4 26 C0.20408278 21.93925135 -1.16709389 18.99946978 -1.1015625 13.4609375 C-0.92488059 8.94715885 -0.43109303 4.50989628 0 0 Z " fill="#FEFEFE" transform="translate(216,144)"/>
<path d="M0 0 C5.94 0 11.88 0 18 0 C18.33 1.65 18.66 3.3 19 5 C19.45375 4.175 19.9075 3.35 20.375 2.5 C20.91125 1.675 21.4475 0.85 22 0 C22.66 0 23.32 0 24 0 C24 7.92 24 15.84 24 24 C16.08 24 8.16 24 0 24 C0 16.08 0 8.16 0 0 Z " fill="#ECECEC" transform="translate(48,192)"/>
<path d="M0 0 C9.21325206 7.37060165 16.58776899 18.25862196 19 30 C20.63876794 48.48488752 17.30752352 61.5015053 5.3828125 75.9609375 C-2.86354015 84.9964148 -15.8199922 90.36689601 -27.9453125 91.203125 C-41.84313582 91.40800692 -55.15292094 87.80246476 -65.50170898 78.05688477 C-75.90883142 67.67807622 -81.94209483 55.30840087 -82.25 40.375 C-82.04723509 26.83030381 -76.51250512 13.80898826 -67.1953125 4.03125 C-48.48187655 -13.28367294 -20.67575175 -15.46478993 0 0 Z M-69.78515625 9.9375 C-79.05876773 21.32198469 -81.16836116 34.80343289 -80 49 C-77.61693092 61.48957893 -70.11331805 73.45568088 -59.58203125 80.65234375 C-46.99704558 88.43942263 -34.14046769 91.03669343 -19.453125 88.3515625 C-6.12117443 84.61989213 4.88178397 76.94040311 11.8203125 64.8203125 C18.53727963 51.02943796 19.91345493 38.14744845 15.32421875 23.4296875 C10.1630951 10.06252949 0.90789518 0.87557106 -12 -5 C-14.96419461 -6.1728498 -17.92654078 -7.15778418 -21 -8 C-21.804375 -8.226875 -22.60875 -8.45375 -23.4375 -8.6875 C-42.14370627 -10.96874467 -57.28203633 -3.63262578 -69.78515625 9.9375 Z " fill="#1A1A1A" transform="translate(207,153)"/>
<path d="M0 0 C-0.99 0.33 -1.98 0.66 -3 1 C-3 7.93 -3 14.86 -3 22 C-10.92 22 -18.84 22 -27 22 C-27 15.4 -27 8.8 -27 2 C-24.875625 1.87625 -22.75125 1.7525 -20.5625 1.625 C-16.21966048 1.32640234 -12.10112745 0.92268319 -7.875 -0.125 C-4.29860777 -0.93257244 -3.26580756 -1.03054372 0 0 Z " fill="#FDFDFD" transform="translate(195,242)"/>
<path d="M0 0 C0.33 0 0.66 0 1 0 C1.33 3.63 1.66 7.26 2 11 C7.61 11 13.22 11 19 11 C19 18.92 19 26.84 19 35 C13.06 35 7.12 35 1 35 C1 36.98 1 38.96 1 41 C0.67 41 0.34 41 0 41 C0 27.47 0 13.94 0 0 Z " fill="#FEFEFE" transform="translate(293,157)"/>
<path d="M0 0 C0.33 0 0.66 0 1 0 C1 11.55 1 23.1 1 35 C0.67 35 0.34 35 0 35 C0 32.03 0 29.06 0 26 C-5.94 26 -11.88 26 -18 26 C-18 18.08 -18 10.16 -18 2 C-9.5625 1.5625 -9.5625 1.5625 -6.90063477 1.43188477 C-3.14029267 1.57312523 -3.14029267 1.57312523 0 0 Z " fill="#FEFEFE" transform="translate(66,166)"/>
<path d="M0 0 C7.92 0 15.84 0 24 0 C24 5.61 24 11.22 24 17 C41.82 17.33 59.64 17.66 78 18 C78 24.27 78 30.54 78 37 C77.67 37 77.34 37 77 37 C77 31.06 77 25.12 77 19 C74.98084473 19.01571045 72.96168945 19.0314209 70.88134766 19.04760742 C64.21977261 19.0972543 57.55818952 19.13042927 50.89647865 19.15543652 C46.85634219 19.17111131 42.81639481 19.19238225 38.77636719 19.22631836 C34.87954213 19.25884776 30.98289926 19.27683934 27.08594894 19.28463173 C25.59713242 19.29018685 24.10832618 19.30103436 22.61958694 19.31719017 C20.53865034 19.33888007 18.45847235 19.34197061 16.37744141 19.34057617 C14.59873154 19.35056892 14.59873154 19.35056892 12.78408813 19.36076355 C11.86533905 19.24171158 10.94658997 19.12265961 10 19 C8 16 8 16 7.625 14.125 C7.07677743 11.76162584 7.07677743 11.76162584 4.9375 9.4375 C3 7 3 7 3 4 C2.34 3.67 1.68 3.34 1 3 C0.67 2.01 0.34 1.02 0 0 Z " fill="#D8D8D8" transform="translate(216,120)"/>
<path d="M0 0 C5.61 0 11.22 0 17 0 C17 7.92 17 15.84 17 24 C11.39 24 5.78 24 0 24 C0 16.08 0 8.16 0 0 Z " fill="#EDEDED" transform="translate(295,144)"/>
<path d="M0 0 C5.61 0 11.22 0 17 0 C17 7.92 17 15.84 17 24 C11.39 24 5.78 24 0 24 C0 16.08 0 8.16 0 0 Z " fill="#EDEDED" transform="translate(48,144)"/>
<path d="M0 0 C7.92 0 15.84 0 24 0 C24 5.61 24 11.22 24 17 C16.08 17 8.16 17 0 17 C0 11.39 0 5.78 0 0 Z " fill="#EDEDED" transform="translate(264,120)"/>
<path d="M0 0 C5.94 0 11.88 0 18 0 C18 7.92 18 15.84 18 24 C14.04 24 10.08 24 6 24 C5.67 25.98 5.34 27.96 5 30 C4.67 30 4.34 30 4 30 C3.97421875 29.04480469 3.9484375 28.08960938 3.921875 27.10546875 C3.58836452 19.50294576 2.88440713 13.32327256 -0.2578125 6.26953125 C-1 4 -1 4 0 0 Z " fill="#ECECEC" transform="translate(222,168)"/>
<path d="M0 0 C7.92 0 15.84 0 24 0 C24 3.96 24 7.92 24 12 C22.68 12.33 21.36 12.66 20 13 C19.60167969 13.67546875 19.20335938 14.3509375 18.79296875 15.046875 C17 17 17 17 15.17431641 17.32617188 C12.87233514 17.39404356 10.61404856 17.34743373 8.3125 17.25 C5.569375 17.1675 2.82625 17.085 0 17 C0 11.39 0 5.78 0 0 Z " fill="#EDEDED" transform="translate(72,120)"/>
<path d="M0 0 C7.92 0 15.84 0 24 0 C24 4.62 24 9.24 24 14 C26.64 14 29.28 14 32 14 C32 14.33 32 14.66 32 15 C18.14 15 4.28 15 -10 15 C-10 14.67 -10 14.34 -10 14 C-6.7 14 -3.4 14 0 14 C0 9.38 0 4.76 0 0 Z " fill="#FEFEFE" transform="translate(168,96)"/>
<path d="M0 0 C0.33 0.99 0.66 1.98 1 3 C4.96 3 8.92 3 13 3 C13 10.92 13 18.84 13 27 C7.06 27.33 1.12 27.66 -5 28 C-4.3487521 23.44126472 -3.68363237 19.49260345 -2.5 15.125 C-1.19282337 10.06208174 -0.4338922 5.20670635 0 0 Z " fill="#FEFEFE" transform="translate(227,189)"/>
<path d="M0 0 C3.3 0 6.6 0 10 0 C10 4.18189644 9.09631941 7.64416717 8 11.625 C4.53233727 25.01574447 6.50314392 35.93956583 11 49 C7.37 48.67 3.74 48.34 0 48 C0 32.16 0 16.32 0 0 Z " fill="#FAFAFA" transform="translate(120,168)"/>
<path d="M0 0 C1.21911575 0.00666183 1.21911575 0.00666183 2.46286011 0.01345825 C3.38366364 0.01360931 4.30446716 0.01376038 5.25317383 0.01391602 C6.2490451 0.02423859 7.24491638 0.03456116 8.27096558 0.04519653 C9.28915375 0.04802643 10.30734192 0.05085632 11.35638428 0.05377197 C14.61709208 0.06499133 17.87752791 0.09009907 21.13815308 0.11550903 C23.34518037 0.12553656 25.55221195 0.13466281 27.75924683 0.14285278 C33.1773088 0.16493636 38.59521151 0.19843108 44.01315308 0.24050903 C44.01315308 1.9071757 44.01315308 3.57384237 44.01315308 5.24050903 C28.01315308 5.24050903 12.01315308 5.24050903 -3.98684692 5.24050903 C-4.97684692 5.73550903 -4.97684692 5.73550903 -5.98684692 6.24050903 C-3.25869392 0.39446689 -3.25869392 0.39446689 0 0 Z " fill="#626262" transform="translate(158.98684692382813,113.75949096679688)"/>
<path d="M0 0 C7.26 0 14.52 0 22 0 C22.04125 2.43375 22.0825 4.8675 22.125 7.375 C22.14320801 8.13989746 22.16141602 8.90479492 22.18017578 9.69287109 C22.1948117 11.46287275 22.09928514 13.23272455 22 15 C21.34 15.66 20.68 16.32 20 17 C19.55011719 16.49210937 19.10023438 15.98421875 18.63671875 15.4609375 C13.96229521 10.45864858 9.39322998 7.28643365 3.22265625 4.32421875 C1 3 1 3 0 0 Z " fill="#EBEBEB" transform="translate(194,144)"/>
<path d="M0 0 C3.3 0 6.6 0 10 0 C10 4.24695243 9.16617188 7.92392284 8.125 12 C7.95097656 12.7115625 7.77695313 13.423125 7.59765625 14.15625 C6.7184347 17.64708519 5.80829189 20.87214376 4 24 C2.68 24 1.36 24 0 24 C0 16.08 0 8.16 0 0 Z " fill="#EDEDED" transform="translate(120,168)"/>
<path d="M0 0 C0 4.62 0 9.24 0 14 C-9.405 14.495 -9.405 14.495 -19 15 C-13.39416058 9.39416058 -13.39416058 9.39416058 -10 6.9375 C-7.63761992 5.20925597 -5.3408337 3.46705704 -3.0625 1.625 C-1 0 -1 0 0 0 Z " fill="#FCFCFC" transform="translate(216,226)"/>
<path d="M0 0 C1.27875 0.00257813 2.5575 0.00515625 3.875 0.0078125 C5.15375 0.00523437 6.4325 0.00265625 7.75 0 C10.875 0.1328125 10.875 0.1328125 11.875 1.1328125 C12 4.1328125 12 4.1328125 11.875 7.1328125 C10.875 8.1328125 10.875 8.1328125 7.75 8.265625 C6.47125 8.26304687 5.1925 8.26046875 3.875 8.2578125 C2.59625 8.26039063 1.3175 8.26296875 0 8.265625 C-3.125 8.1328125 -3.125 8.1328125 -4.125 7.1328125 C-4.25 4.1328125 -4.25 4.1328125 -4.125 1.1328125 C-3.125 0.1328125 -3.125 0.1328125 0 0 Z " fill="#E4E4E4" transform="translate(262.125,145.8671875)"/>
<path d="M0 0 C0.33 0 0.66 0 1 0 C2.24795354 12.65781446 2.10177436 25.29542824 2 38 C1.34 38 0.68 38 0 38 C0 39.65 0 41.3 0 43 C-0.33 43 -0.66 43 -1 43 C-1.02464574 37.03686834 -1.042834 31.07376605 -1.05493164 25.1105957 C-1.05997278 23.08031702 -1.06680557 21.05004198 -1.07543945 19.01977539 C-1.08751467 16.10822653 -1.09323034 13.1967255 -1.09765625 10.28515625 C-1.10281754 9.3716188 -1.10797882 8.45808136 -1.11329651 7.51686096 C-1.11349168 5.34424573 -1.06211805 3.17172704 -1 1 C-0.67 0.67 -0.34 0.34 0 0 Z " fill="#FDFDFD" transform="translate(70,154)"/>
<path d="M0 0 C0 3.3 0 6.6 0 10 C-7.92 10 -15.84 10 -24 10 C-24 9.67 -24 9.34 -24 9 C-19.05 9 -14.1 9 -9 9 C-8.34 7.68 -7.68 6.36 -7 5 C-3.71428571 0 -3.71428571 0 0 0 Z " fill="#ECECEC" transform="translate(144,134)"/>
<path d="M0 0 C0.66 0.33 1.32 0.66 2 1 C-0.67008879 8.55547104 -4.99264257 16.72722108 -12 21 C-19.83028709 22.84936429 -28.08250355 21.93638513 -36 21 C-36 20.67 -36 20.34 -36 20 C-35.41508789 19.97494385 -34.83017578 19.9498877 -34.22753906 19.92407227 C-31.56815529 19.80777038 -28.90909597 19.68519933 -26.25 19.5625 C-25.32960938 19.52318359 -24.40921875 19.48386719 -23.4609375 19.44335938 C-22.57148437 19.40146484 -21.68203125 19.35957031 -20.765625 19.31640625 C-19.54020996 19.26141968 -19.54020996 19.26141968 -18.29003906 19.20532227 C-16.07379364 19.00661625 -14.1115953 18.70240115 -12 18 C-10.99083967 16.23408113 -10.99083967 16.23408113 -10 14 C-9.14653381 12.94061815 -8.26958869 11.89989293 -7.375 10.875 C-4.78770618 8.36453083 -4.78770618 8.36453083 -5 6 C-4.01 6 -3.02 6 -2 6 C-1.855625 5.195625 -1.71125 4.39125 -1.5625 3.5625 C-1 1 -1 1 0 0 Z " fill="#D2D2D2" transform="translate(146,118)"/>
<path d="M0 0 C4.29 0 8.58 0 13 0 C13 0.99 13 1.98 13 3 C9 5 5 7 1 9 C0 8 0 8 -0.09765625 6.15234375 C-0.06510417 4.1015625 -0.03255208 2.05078125 0 0 Z " fill="#EEEEEE" transform="translate(144,144)"/>
<path d="M0 0 C1.37562854 1.28965176 2.70766393 2.62689293 4 4 C4 4.66 4 5.32 4 6 C5.65 6.33 7.3 6.66 9 7 C9 7.66 9 8.32 9 9 C13.95 9 18.9 9 24 9 C24 9.33 24 9.66 24 10 C16.08 10 8.16 10 0 10 C0 6.7 0 3.4 0 0 Z " fill="#EDEDED" transform="translate(216,134)"/>
<path d="M0 0 C0.33 0 0.66 0 1 0 C1.02907084 3.58331625 1.04682263 7.16660208 1.0625 10.75 C1.07087891 11.76578125 1.07925781 12.7815625 1.08789062 13.828125 C1.09111328 14.8078125 1.09433594 15.7875 1.09765625 16.796875 C1.10289307 17.69760742 1.10812988 18.59833984 1.11352539 19.52636719 C1.00762312 21.83389804 0.65132813 23.79134405 0 26 C-0.66 26 -1.32 26 -2 26 C-2.05785647 22.04172765 -2.09354717 18.0835633 -2.125 14.125 C-2.14175781 12.99707031 -2.15851563 11.86914062 -2.17578125 10.70703125 C-2.18222656 9.63066406 -2.18867188 8.55429688 -2.1953125 7.4453125 C-2.20578613 6.45031738 -2.21625977 5.45532227 -2.22705078 4.43017578 C-2 2 -2 2 0 0 Z " fill="#EFEFEF" transform="translate(290,142)"/>
<path d="M0 0 C-2.65767637 1.77178425 -4.66019788 2.64746624 -7.625 3.6875 C-14.13637486 6.22922089 -19.30702191 10.19851363 -24.1328125 15.21875 C-26 17 -26 17 -28 17 C-24.48176798 8.41474903 -14.10562003 3.46533847 -6 0 C-3 -1 -3 -1 0 0 Z " fill="#1F1F1F" transform="translate(165,145)"/>
<path d="M0 0 C1.27875 0.00257813 2.5575 0.00515625 3.875 0.0078125 C5.15375 0.00523437 6.4325 0.00265625 7.75 0 C10.875 0.1328125 10.875 0.1328125 11.875 1.1328125 C12 4.1328125 12 4.1328125 11.875 7.1328125 C10.875 8.1328125 10.875 8.1328125 7.75 8.265625 C6.47125 8.26304687 5.1925 8.26046875 3.875 8.2578125 C2.59625 8.26039063 1.3175 8.26296875 0 8.265625 C-3.125 8.1328125 -3.125 8.1328125 -4.125 7.1328125 C-4.25 4.1328125 -4.25 4.1328125 -4.125 1.1328125 C-3.125 0.1328125 -3.125 0.1328125 0 0 Z M-3.125 3.1328125 C-2.795 4.4528125 -2.465 5.7728125 -2.125 7.1328125 C1.835 7.1328125 5.795 7.1328125 9.875 7.1328125 C9.875 5.4828125 9.875 3.8328125 9.875 2.1328125 C8.20938601 0.46719851 6.21537295 0.96165305 3.9375 0.9453125 C3.04160156 0.93113281 2.14570313 0.91695312 1.22265625 0.90234375 C-1.31614534 0.90086481 -1.31614534 0.90086481 -3.125 3.1328125 Z " fill="#191919" transform="translate(262.125,145.8671875)"/>
<path d="M0 0 C5.94 3.465 5.94 3.465 12 7 C11.67 7.66 11.34 8.32 11 9 C10.34 8.67 9.68 8.34 9 8 C7.46331135 7.77532169 5.92031946 7.59203195 4.375 7.4375 C3.55773437 7.35371094 2.74046875 7.26992187 1.8984375 7.18359375 C1.27195313 7.12300781 0.64546875 7.06242188 0 7 C0 4.69 0 2.38 0 0 Z " fill="#F9F9F9" transform="translate(144,233)"/>
<path d="M0 0 C0.66 0.33 1.32 0.66 2 1 C1.649375 1.61875 1.29875 2.2375 0.9375 2.875 C0.4734375 3.926875 0.4734375 3.926875 0 5 C0.33 5.66 0.66 6.32 1 7 C-1.3125 8.5625 -1.3125 8.5625 -4 10 C-4.99 9.67 -5.98 9.34 -7 9 C-6 6 -6 6 -4 4 C-4 3.34 -4 2.68 -4 2 C-2.125 0.9375 -2.125 0.9375 0 0 Z " fill="#ECECEC" transform="translate(156,148)"/>
<path d="M0 0 C0.928125 0.2784375 0.928125 0.2784375 1.875 0.5625 C4.04160178 1.23686176 4.04160178 1.23686176 6 0 C5.67 3.3 5.34 6.6 5 10 C4.34 10 3.68 10 3 10 C2.67 8.02 2.34 6.04 2 4 C1.34 4 0.68 4 0 4 C0 2.68 0 1.36 0 0 Z " fill="#EDEDED" transform="translate(218,182)"/>
<path d="M0 0 C0.33 0.66 0.66 1.32 1 2 C3.52733235 2.65555119 3.52733235 2.65555119 6 3 C6 3.66 6 4.32 6 5 C6.99 5.33 7.98 5.66 9 6 C8.67 6.99 8.34 7.98 8 9 C6.65826597 8.07456291 5.32679841 7.13422595 4 6.1875 C3.2575 5.66542969 2.515 5.14335937 1.75 4.60546875 C1.1725 4.07566406 0.595 3.54585937 0 3 C0 2.01 0 1.02 0 0 Z " fill="#F3F3F3" transform="translate(200,146)"/>
<path d="M0 0 C3.63 1.98 7.26 3.96 11 6 C10.34 6.66 9.68 7.32 9 8 C5.7 6.02 2.4 4.04 -1 2 C-0.67 1.34 -0.34 0.68 0 0 Z " fill="#292929" transform="translate(146,232)"/>
<path d="M0 0 C0.66 0.66 1.32 1.32 2 2 C1.01 2 0.02 2 -1 2 C0.32 3.65 1.64 5.3 3 7 C-2.75 5.125 -2.75 5.125 -5 4 C-5 3.34 -5 2.68 -5 2 C-3.35 1.34 -1.7 0.68 0 0 Z " fill="#F6F6F6" transform="translate(198,150)"/>
<path d="M0 0 C0.99 0.33 1.98 0.66 3 1 C2.0479279 2.00596297 1.08812654 3.00461563 0.125 4 C-0.40867188 4.556875 -0.94234375 5.11375 -1.4921875 5.6875 C-3 7 -3 7 -5 7 C-3.70700306 4.11562221 -2.34058637 2.12780579 0 0 Z " fill="#3C3C3C" transform="translate(142,155)"/>
<path d="M0 0 C0.33 0.66 0.66 1.32 1 2 C-0.32 3.32 -1.64 4.64 -3 6 C-3.99 5.67 -4.98 5.34 -6 5 C-3.375 1.125 -3.375 1.125 0 0 Z " fill="#F2F2F2" transform="translate(143,134)"/>
<path d="M0 0 C0.99 0 1.98 0 3 0 C3 1.32 3 2.64 3 4 C1.35 4.33 -0.3 4.66 -2 5 C-2 3 -2 3 0 1 C0 0.67 0 0.34 0 0 Z M-3 5 C-2.34 5.66 -1.68 6.32 -1 7 C-1.99 6.67 -2.98 6.34 -4 6 C-3.67 5.67 -3.34 5.34 -3 5 Z " fill="#E9E9E9" transform="translate(165,145)"/>
<path d="M0 0 C2.31 0 4.62 0 7 0 C7 0.99 7 1.98 7 3 C6.01 3.33 5.02 3.66 4 4 C2.66666667 2.66666667 1.33333333 1.33333333 0 0 Z " fill="#E6E6E6" transform="translate(150,144)"/>
</svg>
